# File created by Blade
# Date/Time:  Thu Sep 25 19:32:06 2014
# Frame Rate: 120.000 fps
#------------------------------------------------------
:FULLY-SPECIFIED
:DEGREES
3377
root -3.445316 33.189142 1.476652 -15.204612 -60.254236 21.155991
Spine 3.006115 43.915329 11.757791
Head -24.854365 73.296025 -31.576537
LeftShoulder -26.049430 23.900887 14.789621
LeftArm 6.974009 -22.391483 -47.012954
LeftForeArm 14.182615 0.000000 14.842913
LeftHand -31.474055 -0.000000 5.410670
LeftHandThumb1 -26.253704 0.000000 33.147579
RightShoulder -14.849622 11.577524 -29.156989
RightArm -20.729411 -11.635491 82.485672
RightForeArm 9.460497 0.000000 68.829221
RightHand -5.385322 -0.000000 8.919176
RightHandThumb1 -24.326973 -0.000000 -32.862282
LeftUpLeg -93.621944 -31.099872 -22.980238
LeftLeg 106.898386 -0.000000 -0.000000
LeftFoot 20.642415 4.767392 -15.796339
LeftToeBase 11.738381 -0.000000 -0.000000
RightUpLeg -11.655840 18.843410 -13.876100
RightLeg 27.350971 -0.000000 -0.000000
RightFoot -16.030643 22.931784 -0.995964
RightToeBase -8.026083 -0.000000 0.000000
3378
root -3.443416 33.188747 1.490809 -15.136744 -60.230754 21.163003
Spine 3.011128 43.891502 11.745243
Head -24.892742 73.327244 -31.615642
LeftShoulder -26.069530 23.904571 14.762667
LeftArm 7.037679 -22.341148 -47.009069
LeftForeArm 14.133642 -0.000000 14.755549
LeftHand -31.529199 -0.000000 5.473482
LeftHandThumb1 -26.253704 0.000000 33.147579
RightShoulder -14.834390 11.591542 -29.156813
RightArm -20.737682 -11.585369 82.496919
RightForeArm 9.324170 0.000000 68.883422
RightHand -5.320321 -0.000000 8.505619
RightHandThumb1 -24.326973 -0.000000 -32.862282
LeftUpLeg -93.626477 -31.100039 -23.004566
LeftLeg 106.839183 -0.000000 -0.000000
LeftFoot 20.563128 4.780028 -15.791822
LeftToeBase 11.748608 -0.000000 -0.000000
RightUpLeg -11.724093 18.862658 -13.902999
RightLeg 27.394623 -0.000000 -0.000000
RightFoot -16.059873 22.766347 -1.132658
RightToeBase -7.603131 -0.000000 0.000000
3379
root -3.441908 33.188145 1.505540 -15.079537 -60.200727 21.174578
Spine 3.019847 43.894766 11.733458
Head -24.791162 73.318973 -31.508559
LeftShoulder -26.027893 23.891925 14.769749
LeftArm 7.018741 -22.285355 -46.990193
LeftForeArm 14.109832 0.000000 14.746093
LeftHand -31.561613 -0.000000 5.397033
LeftHandThumb1 -26.253704 0.000000 33.147579
RightShoulder -14.823053 11.610137 -29.148074
RightArm -20.781046 -11.543130 82.497509
RightForeArm 9.285232 -0.000000 68.929733
RightHand -5.301656 -0.000000 8.420492
RightHandThumb1 -24.326973 -0.000000 -32.862282
LeftUpLeg -93.626033 -31.104689 -23.027116
LeftLeg 106.780375 -0.000000 -0.000000
LeftFoot 20.497355 4.797494 -15.804886
LeftToeBase 11.836273 -0.000000 -0.000000
RightUpLeg -11.781740 18.868319 -13.928218
RightLeg 27.441243 -0.000000 -0.000000
RightFoot -16.093390 22.570435 -1.334812
RightToeBase -7.987773 -0.000000 0.000000
3380
root -3.440605 33.187441 1.521404 -15.031325 -60.166814 21.192285
Spine 3.025898 43.885379 11.716361
Head -24.656614 73.305602 -31.366115
LeftShoulder -26.010773 23.876730 14.773965
LeftArm 7.009520 -22.228745 -46.968946
LeftForeArm 14.062977 -0.000000 14.730373
LeftHand -31.529550 -0.000000 5.254675
LeftHandThumb1 -26.253704 0.000000 33.147579
RightShoulder -14.792441 11.606754 -29.131845
RightArm -20.799092 -11.514578 82.502530
RightForeArm 9.325659 -0.000000 68.946335
RightHand -5.332363 -0.000000 8.568986
RightHandThumb1 -24.326973 -0.000000 -32.862282
LeftUpLeg -93.620267 -31.114629 -23.051330
LeftLeg 106.723531 -0.000000 -0.000000
LeftFoot 20.458174 4.818346 -15.817069
LeftToeBase 11.925012 -0.000000 -0.000000
RightUpLeg -11.816899 18.873905 -13.942726
RightLeg 27.469431 -0.000000 -0.000000
RightFoot -16.162711 22.282149 -1.640919
RightToeBase -8.269030 -0.000000 0.000000
3381
root -3.439631 33.186587 1.535997 -14.966461 -60.127737 21.187039
Spine 3.040935 43.859603 11.720099
Head -24.462343 73.310743 -31.168932
LeftShoulder -26.026979 23.941613 14.744769
LeftArm 7.091387 -22.296954 -47.034783
LeftForeArm 14.093494 -0.000000 14.728562
LeftHand -31.465122 -0.000000 5.140034
LeftHandThumb1 -26.253704 0.000000 33.147579
RightShoulder -14.769131 11.612371 -29.112596
RightArm -20.795981 -11.500470 82.491042
RightForeArm 9.300993 0.000000 68.976760
RightHand -5.350767 -0.000000 8.531930
RightHandThumb1 -24.326973 -0.000000 -32.862282
LeftUpLeg -93.602983 -31.120801 -23.070271
LeftLeg 106.662618 -0.000000 -0.000000
LeftFoot 20.455024 4.853078 -15.826181
LeftToeBase 11.833602 -0.000000 -0.000000
RightUpLeg -11.853364 18.871570 -13.947545
RightLeg 27.517482 -0.000000 -0.000000
RightFoot -16.346752 21.935388 -2.121598
RightToeBase -8.421021 -0.000000 0.000000
3382
root -3.437943 33.185994 1.549862 -14.901963 -60.093864 21.196141
Spine 3.049975 43.851610 11.710796
Head -24.343385 73.316197 -31.072892
LeftShoulder -26.030808 23.924919 14.697264
LeftArm 7.096978 -22.307404 -47.000853
LeftForeArm 14.036434 -0.000000 14.733254
LeftHand -31.482159 -0.000000 5.091278
LeftHandThumb1 -26.253704 0.000000 33.147579
RightShoulder -14.812064 11.595478 -29.103732
RightArm -20.724989 -11.522315 82.484217
RightForeArm 9.195909 -0.000000 68.972840
RightHand -5.359975 -0.000000 8.475406
RightHandThumb1 -24.326973 -0.000000 -32.862282
LeftUpLeg -93.588408 -31.108288 -23.090101
LeftLeg 106.590175 -0.000000 -0.000000
LeftFoot 20.417264 4.764364 -15.696482
LeftToeBase 11.920794 -0.000000 -0.000000
RightUpLeg -11.907199 18.893014 -13.964867
RightLeg 27.553056 -0.000000 -0.000000
RightFoot -16.340680 21.708670 -2.352574
RightToeBase -9.058470 -0.000000 0.000000
3383
root -3.435354 33.184624 1.562477 -14.828207 -60.071657 21.204392
Spine 3.051493 43.853665 11.705527
Head -24.187100 73.311207 -30.938030
LeftShoulder -26.012062 23.942179 14.689876
LeftArm 7.096815 -22.355646 -47.048590
LeftForeArm 14.057354 0.000000 14.765011
LeftHand -31.523702 0.000000 5.016778
LeftHandThumb1 -26.253704 0.000000 33.147579
RightShoulder -14.820075 11.587323 -29.100542
RightArm -20.677041 -11.513031 82.465446
RightForeArm 9.148249 -0.000000 68.977967
RightHand -5.454132 -0.000000 8.879393
RightHandThumb1 -24.326973 -0.000000 -32.862282
LeftUpLeg -93.601078 -31.089490 -23.079646
LeftLeg 106.531146 -0.000000 -0.000000
LeftFoot 20.404136 4.736365 -15.729242
LeftToeBase 12.034079 -0.000000 -0.000000
RightUpLeg -11.985212 18.946049 -13.986415
RightLeg 27.607913 -0.000000 -0.000000
RightFoot -16.381938 21.450526 -2.585125
RightToeBase -9.493362 -0.000000 0.000000
3384
root -3.432650 33.183504 1.576303 -14.758121 -60.053650 21.203748
Spine 3.083073 43.849364 11.730516
Head -24.090361 73.362117 -30.868997
LeftShoulder -26.077320 24.023709 14.617789
LeftArm 7.244809 -22.365441 -47.103522
LeftForeArm 13.979552 -0.000000 14.707004
LeftHand -31.503574 -0.000000 4.911053
LeftHandThumb1 -26.253704 0.000000 33.147579
RightShoulder -14.807509 11.608152 -29.077276
RightArm -20.650722 -11.526403 82.411262
RightForeArm 9.061170 -0.000000 69.012122
RightHand -5.445590 -0.000000 8.521595
RightHandThumb1 -24.326973 -0.000000 -32.862282
LeftUpLeg -93.604346 -31.058478 -23.057202
LeftLeg 106.460139 -0.000000 -0.000000
LeftFoot 20.469188 4.722549 -15.878454
LeftToeBase 11.882844 -0.000000 -0.000000
RightUpLeg -12.053552 19.009398 -14.007748
RightLeg 27.659048 -0.000000 -0.000000
RightFoot -16.423557 21.232491 -2.713147
RightToeBase -9.691973 -0.000000 0.000000
3385
root -3.428380 33.182474 1.591474 -14.704595 -60.028306 21.198397
Spine 3.171237 43.821885 11.807231
Head -24.086278 73.348371 -30.921210
LeftShoulder -26.099890 24.004572 14.606618
LeftArm 7.250084 -22.286881 -47.152277
LeftForeArm 13.943665 -0.000000 14.676792
LeftHand -31.434739 0.000000 4.915693
LeftHandThumb1 -26.253704 0.000000 33.147579
RightShoulder -14.799697 11.634330 -29.100302
RightArm -20.609749 -11.627856 82.381340
RightForeArm 9.107933 -0.000000 69.016386
RightHand -5.529995 -0.000000 8.786059
RightHandThumb1 -24.326973 -0.000000 -32.862282
LeftUpLeg -93.583339 -31.030486 -23.070366
LeftLeg 106.393520 -0.000000 -0.000000
LeftFoot 20.480060 4.690014 -15.812869
LeftToeBase 12.078094 -0.000000 -0.000000
RightUpLeg -12.101801 19.062097 -14.030389
RightLeg 27.706477 -0.000000 -0.000000
RightFoot -16.420102 21.065304 -2.712738
RightToeBase -9.914800 -0.000000 0.000000
3386
root -3.422073 33.180714 1.606397 -14.640842 -59.995284 21.196563
Spine 3.254141 43.792812 11.880915
Head -24.053255 73.360121 -30.958122
LeftShoulder -26.160735 24.039024 14.548135
LeftArm 7.355327 -22.251700 -47.234610
LeftForeArm 13.927601 -0.000000 14.582877
LeftHand -31.244384 -0.000000 4.981152
LeftHandThumb1 -26.253704 0.000000 33.147579
RightShoulder -14.752660 11.620026 -29.123287
RightArm -20.571592 -11.676101 82.339101
RightForeArm 9.048853 -0.000000 69.062630
RightHand -5.511789 -0.000000 8.736367
RightHandThumb1 -24.326973 -0.000000 -32.862282
LeftUpLeg -93.574045 -31.018040 -23.050885
LeftLeg 106.313902 -0.000000 -0.000000
LeftFoot 20.541093 4.682805 -15.892412
LeftToeBase 11.884513 -0.000000 -0.000000
RightUpLeg -12.160939 19.040324 -14.054251
RightLeg 27.750631 -0.000000 -0.000000
RightFoot -16.458879 20.904822 -2.842877
RightToeBase -10.127956 -0.000000 0.000000
3387
root -3.414870 33.179108 1.620472 -14.561801 -59.985096 21.201719
Spine 3.290848 43.801757 11.936835
Head -23.818510 73.383052 -30.774790
LeftShoulder -26.178743 24.108198 14.516554
LeftArm 7.431052 -22.230442 -47.336714
LeftForeArm 13.935957 -0.000000 14.569170
LeftHand -31.301202 0.000000 4.954340
LeftHandThumb1 -26.253704 0.000000 33.147579
RightShoulder -14.701923 11.623273 -29.158294
RightArm -20.568444 -11.733356 82.321517
RightForeArm 8.988070 -0.000000 69.111618
RightHand -5.537194 0.000000 8.606036
RightHandThumb1 -24.326973 -0.000000 -32.862282
LeftUpLeg -93.582329 -30.982041 -23.030057
LeftLeg 106.241749 -0.000000 -0.000000
LeftFoot 20.527787 4.599457 -15.832143
LeftToeBase 11.837526 -0.000000 -0.000000
RightUpLeg -12.260472 19.019713 -14.098533
RightLeg 27.799191 -0.000000 -0.000000
RightFoot -16.456155 20.833542 -2.871122
RightToeBase -10.326059 -0.000000 0.000000
